<?xml version="1.0" encoding="UTF-8" ?>
<!DOCTYPE svg PUBLIC "-//W3C//DTD SVG 1.1//EN" "http://www.w3.org/Graphics/SVG/1.1/DTD/svg11.dtd">
<svg width="897pt" height="897pt" viewBox="0 0 897 897" version="1.1" xmlns="http://www.w3.org/2000/svg">
<g id="#fefefeff">
<path fill="#fefefe" opacity="1.00" d=" M 0.00 0.00 L 897.00 0.00 L 897.00 897.00 L 0.00 897.00 L 0.00 0.00 M 250.61 121.65 C 178.89 165.08 122.11 232.64 92.07 310.96 C 53.07 411.14 59.10 527.83 108.77 623.25 C 110.90 627.48 118.59 626.55 119.52 621.74 C 132.37 557.91 153.01 495.26 183.92 437.81 C 206.06 397.70 234.22 359.62 272.31 333.36 C 274.89 331.72 274.37 328.40 274.32 325.80 C 277.66 323.96 280.84 321.86 284.00 319.74 C 286.23 322.88 290.63 322.26 293.52 320.48 C 301.30 316.09 309.09 311.70 317.33 308.23 C 336.30 299.64 357.36 297.57 377.93 296.92 C 382.39 296.50 388.26 297.54 390.68 292.71 C 393.53 292.81 396.62 293.33 399.26 291.95 C 400.86 297.52 407.44 296.79 411.97 296.76 C 444.73 296.17 477.64 299.59 509.12 308.94 C 513.30 310.73 517.91 309.41 520.36 305.54 C 523.77 307.34 527.56 308.26 531.35 308.90 C 531.94 314.94 539.19 315.37 543.58 317.39 C 559.70 323.98 575.68 331.58 589.45 342.38 C 589.85 343.93 590.17 345.57 591.15 346.90 C 612.37 374.21 629.83 406.53 631.55 441.74 C 632.85 486.08 606.72 530.25 566.70 549.70 C 536.85 564.65 502.44 564.07 469.96 562.03 C 426.84 558.88 383.88 549.75 344.16 532.42 C 339.59 544.71 336.52 557.52 333.20 570.20 C 316.48 638.18 303.68 707.16 294.65 776.57 C 294.03 782.96 292.75 789.32 293.10 795.76 C 303.65 801.79 315.42 805.45 327.08 808.71 C 327.87 810.65 329.87 811.64 331.72 812.36 C 404.57 835.82 484.47 836.49 557.84 814.81 C 622.69 795.62 682.08 758.62 728.13 709.11 C 772.25 661.88 804.26 603.32 819.61 540.50 C 843.53 444.49 828.68 339.28 777.79 254.28 C 741.49 192.79 687.62 141.79 624.19 108.97 C 569.14 80.47 507.02 65.49 445.00 66.56 C 376.78 66.68 308.88 86.29 250.61 121.65 M 480.32 365.22 C 458.94 365.38 437.68 369.38 417.59 376.63 C 400.03 383.07 382.90 392.18 370.12 406.11 C 360.74 416.26 354.45 430.02 355.93 444.07 C 357.66 463.54 370.08 480.19 384.40 492.66 C 421.55 524.85 473.46 537.44 521.62 529.83 C 540.89 526.84 560.41 520.44 575.26 507.33 C 589.33 495.10 597.38 476.57 597.27 457.98 C 597.27 444.06 599.01 428.93 591.54 416.44 C 579.92 398.23 561.23 385.77 541.71 377.34 C 522.28 369.46 501.37 364.53 480.32 365.22 Z" />
<path fill="#fefefe" opacity="1.00" d=" M 466.48 377.76 C 499.03 374.44 532.87 382.47 559.90 401.05 C 567.96 406.86 575.60 413.60 580.86 422.12 C 584.89 428.64 585.31 436.56 585.45 444.02 C 585.29 455.76 585.83 468.00 581.11 479.04 C 575.58 492.85 563.57 503.11 550.29 509.21 C 532.12 517.55 511.83 520.22 491.98 519.84 C 459.19 520.07 426.56 509.16 400.07 489.93 C 388.07 480.99 377.19 469.81 371.15 455.94 C 367.21 447.04 366.39 436.43 370.42 427.42 C 374.87 417.01 383.38 408.92 392.55 402.58 C 414.45 387.97 440.50 380.56 466.48 377.76 M 485.46 440.56 C 479.69 442.98 472.56 451.06 478.16 456.93 C 484.70 462.42 497.24 466.47 503.15 458.12 C 506.97 448.65 495.21 436.33 485.46 440.56 Z" />
</g>
<g id="#000000ff">
<path fill="#000000" opacity="1.00" d=" M 250.61 121.65 C 308.88 86.29 376.78 66.68 445.00 66.56 C 507.02 65.49 569.14 80.47 624.19 108.97 C 687.62 141.79 741.49 192.79 777.79 254.28 C 828.68 339.28 843.53 444.49 819.61 540.50 C 804.26 603.32 772.25 661.88 728.13 709.11 C 682.08 758.62 622.69 795.62 557.84 814.81 C 484.47 836.49 404.57 835.82 331.72 812.36 C 329.87 811.64 327.87 810.65 327.08 808.71 C 326.71 796.45 327.44 784.17 328.29 771.94 C 333.95 700.60 344.36 629.75 355.00 559.01 C 355.33 555.59 356.90 551.14 361.07 551.28 C 366.83 552.21 371.66 555.91 377.07 557.93 C 426.36 578.10 480.95 587.27 533.95 579.80 C 556.75 576.12 579.37 568.78 598.42 555.43 C 642.82 524.72 662.17 461.79 641.16 411.80 C 631.26 384.24 613.24 359.55 589.45 342.38 C 575.68 331.58 559.70 323.98 543.58 317.39 C 539.19 315.37 531.94 314.94 531.35 308.90 C 530.50 282.64 527.23 256.26 519.79 231.00 C 516.63 220.49 512.22 210.28 505.59 201.48 C 501.79 197.36 506.48 190.68 511.60 192.11 C 516.25 194.04 518.51 198.97 521.01 203.02 C 537.58 234.04 540.60 269.93 543.64 304.35 C 564.19 312.50 584.39 322.33 601.62 336.38 C 632.19 360.32 652.32 396.02 660.13 433.77 C 667.43 480.53 649.06 531.16 611.59 560.61 C 583.50 582.90 547.32 592.46 511.99 594.10 C 462.09 596.15 411.80 586.32 366.07 566.38 C 357.81 621.35 349.49 676.37 344.12 731.71 C 399.67 711.51 456.25 694.26 512.67 676.69 C 517.56 674.31 517.45 667.58 520.51 663.50 C 534.26 641.08 555.47 624.62 576.48 609.38 C 580.46 606.44 585.45 603.16 590.58 605.11 C 594.92 606.41 595.85 613.77 591.26 615.34 C 586.43 617.62 581.62 620.03 577.50 623.49 C 559.90 637.00 541.59 651.13 530.60 670.83 C 550.50 666.91 569.26 656.56 589.98 657.64 C 594.35 657.89 599.22 657.48 603.04 660.01 C 607.26 663.44 603.92 671.95 598.11 670.25 C 577.93 667.27 558.52 675.17 539.85 681.62 C 551.53 691.65 563.93 700.93 577.19 708.79 C 582.15 711.56 584.70 720.84 578.39 723.49 C 572.93 725.46 570.59 718.66 566.58 716.46 C 552.89 708.18 540.63 697.83 528.20 687.85 C 524.49 684.32 519.54 687.23 515.46 688.34 C 468.85 702.95 422.17 717.34 375.91 733.04 C 365.65 736.61 355.30 740.01 345.39 744.47 C 341.59 745.75 342.21 750.37 341.69 753.56 C 340.77 769.59 338.54 785.64 339.31 801.72 C 358.89 808.79 379.65 812.41 400.21 815.46 C 464.12 823.78 530.21 815.49 589.75 790.68 C 660.96 761.54 722.33 709.23 762.92 643.92 C 816.56 558.91 832.58 451.39 806.56 354.35 C 790.61 292.82 758.20 235.67 713.69 190.31 C 646.30 120.38 550.20 78.79 453.00 78.59 C 361.62 76.77 270.24 111.26 202.37 172.38 C 147.86 220.63 108.32 285.50 90.20 355.99 C 69.48 436.89 76.43 525.08 111.59 600.99 C 124.24 545.57 142.69 491.30 168.69 440.68 C 192.13 396.29 222.14 353.81 263.74 324.74 C 267.09 321.71 271.29 323.18 274.32 325.80 C 274.37 328.40 274.89 331.72 272.31 333.36 C 234.22 359.62 206.06 397.70 183.92 437.81 C 153.01 495.26 132.37 557.91 119.52 621.74 C 118.59 626.55 110.90 627.48 108.77 623.25 C 59.10 527.83 53.07 411.14 92.07 310.96 C 122.11 232.64 178.89 165.08 250.61 121.65 Z" />
<path fill="#000000" opacity="1.00" d=" M 343.75 190.23 C 339.78 186.49 343.27 178.94 348.79 180.23 C 354.12 182.02 356.97 187.48 360.42 191.56 C 380.74 220.27 394.68 252.77 409.52 284.44 C 441.12 284.69 473.04 286.56 503.63 295.17 C 509.94 297.09 519.82 296.87 520.36 305.54 C 517.91 309.41 513.30 310.73 509.12 308.94 C 477.64 299.59 444.73 296.17 411.97 296.76 C 407.44 296.79 400.86 297.52 399.26 291.95 C 389.19 268.50 378.54 245.24 365.94 223.02 C 359.58 211.43 352.54 200.16 343.75 190.23 Z" />
<path fill="#000000" opacity="1.00" d=" M 222.35 229.66 C 218.51 225.18 224.72 218.61 229.59 221.24 C 234.75 224.34 237.97 229.70 241.75 234.24 C 259.26 257.82 274.92 282.72 290.59 307.54 C 295.67 306.03 300.03 302.91 304.79 300.68 C 329.52 288.28 357.61 284.64 384.98 284.85 C 389.46 284.57 390.11 289.39 390.68 292.71 C 388.26 297.54 382.39 296.50 377.93 296.92 C 357.36 297.57 336.30 299.64 317.33 308.23 C 309.09 311.70 301.30 316.09 293.52 320.48 C 290.63 322.26 286.23 322.88 284.00 319.74 C 264.42 289.10 245.90 257.48 222.35 229.66 Z" />
<path fill="#000000" opacity="1.00" d=" M 480.32 365.22 C 501.37 364.53 522.28 369.46 541.71 377.34 C 561.23 385.77 579.92 398.23 591.54 416.44 C 599.01 428.93 597.27 444.06 597.27 457.98 C 597.38 476.57 589.33 495.10 575.26 507.33 C 560.41 520.44 540.89 526.84 521.62 529.83 C 473.46 537.44 421.55 524.85 384.40 492.66 C 370.08 480.19 357.66 463.54 355.93 444.07 C 354.45 430.02 360.74 416.26 370.12 406.11 C 382.90 392.18 400.03 383.07 417.59 376.63 C 437.68 369.38 458.94 365.38 480.32 365.22 M 466.48 377.76 C 440.50 380.56 414.45 387.97 392.55 402.58 C 383.38 408.92 374.87 417.01 370.42 427.42 C 366.39 436.43 367.21 447.04 371.15 455.94 C 377.19 469.81 388.07 480.99 400.07 489.93 C 426.56 509.16 459.19 520.07 491.98 519.84 C 511.83 520.22 532.12 517.55 550.29 509.21 C 563.57 503.11 575.58 492.85 581.11 479.04 C 585.83 468.00 585.29 455.76 585.45 444.02 C 585.31 436.56 584.89 428.64 580.86 422.12 C 575.60 413.60 567.96 406.86 559.90 401.05 C 532.87 382.47 499.03 374.44 466.48 377.76 Z" />
<path fill="#000000" opacity="1.00" d=" M 485.46 440.56 C 495.21 436.33 506.97 448.65 503.15 458.12 C 497.24 466.47 484.70 462.42 478.16 456.93 C 472.56 451.06 479.69 442.98 485.46 440.56 Z" />
</g>
<g id="#5ea1edff">
<path fill="#5ea1ed" opacity="1.00" d=" M 202.37 172.38 C 270.24 111.26 361.62 76.77 453.00 78.59 C 550.20 78.79 646.30 120.38 713.69 190.31 C 758.20 235.67 790.61 292.82 806.56 354.35 C 832.58 451.39 816.56 558.91 762.92 643.92 C 722.33 709.23 660.96 761.54 589.75 790.68 C 530.21 815.49 464.12 823.78 400.21 815.46 C 379.65 812.41 358.89 808.79 339.31 801.72 C 338.54 785.64 340.77 769.59 341.69 753.56 C 342.21 750.37 341.59 745.75 345.39 744.47 C 355.30 740.01 365.65 736.61 375.91 733.04 C 422.17 717.34 468.85 702.95 515.46 688.34 C 519.54 687.23 524.49 684.32 528.20 687.85 C 540.63 697.83 552.89 708.18 566.58 716.46 C 570.59 718.66 572.93 725.46 578.39 723.49 C 584.70 720.84 582.15 711.56 577.19 708.79 C 563.93 700.93 551.53 691.65 539.85 681.62 C 558.52 675.17 577.93 667.27 598.11 670.25 C 603.92 671.95 607.26 663.44 603.04 660.01 C 599.22 657.48 594.35 657.89 589.98 657.64 C 569.26 656.56 550.50 666.91 530.60 670.83 C 541.59 651.13 559.90 637.00 577.50 623.49 C 581.62 620.03 586.43 617.62 591.26 615.34 C 595.85 613.77 594.92 606.41 590.58 605.11 C 585.45 603.16 580.46 606.44 576.48 609.38 C 555.47 624.62 534.26 641.08 520.51 663.50 C 517.45 667.58 517.56 674.31 512.67 676.69 C 456.25 694.26 399.67 711.51 344.12 731.71 C 349.49 676.37 357.81 621.35 366.07 566.38 C 411.80 586.32 462.09 596.15 511.99 594.10 C 547.32 592.46 583.50 582.90 611.59 560.61 C 649.06 531.16 667.43 480.53 660.13 433.77 C 652.32 396.02 632.19 360.32 601.62 336.38 C 584.39 322.33 564.19 312.50 543.64 304.35 C 540.60 269.93 537.58 234.04 521.01 203.02 C 518.51 198.97 516.25 194.04 511.60 192.11 C 506.48 190.68 501.79 197.36 505.59 201.48 C 512.22 210.28 516.63 220.49 519.79 231.00 C 527.23 256.26 530.50 282.64 531.35 308.90 C 527.56 308.26 523.77 307.34 520.36 305.54 C 519.82 296.87 509.94 297.09 503.63 295.17 C 473.04 286.56 441.12 284.69 409.52 284.44 C 394.68 252.77 380.74 220.27 360.42 191.56 C 356.97 187.48 354.12 182.02 348.79 180.23 C 343.27 178.94 339.78 186.49 343.75 190.23 C 352.54 200.16 359.58 211.43 365.94 223.02 C 378.54 245.24 389.19 268.50 399.26 291.95 C 396.62 293.33 393.53 292.81 390.68 292.71 C 390.11 289.39 389.46 284.57 384.98 284.85 C 357.61 284.64 329.52 288.28 304.79 300.68 C 300.03 302.91 295.67 306.03 290.59 307.54 C 274.92 282.72 259.26 257.82 241.75 234.24 C 237.97 229.70 234.75 224.34 229.59 221.24 C 224.72 218.61 218.51 225.18 222.35 229.66 C 245.90 257.48 264.42 289.10 284.00 319.74 C 280.84 321.86 277.66 323.96 274.32 325.80 C 271.29 323.18 267.09 321.71 263.74 324.74 C 222.14 353.81 192.13 396.29 168.69 440.68 C 142.69 491.30 124.24 545.57 111.59 600.99 C 76.43 525.08 69.48 436.89 90.20 355.99 C 108.32 285.50 147.86 220.63 202.37 172.38 Z" />
</g>
<g id="#e5e5e5ff">
<path fill="#e5e5e5" opacity="1.00" d=" M 589.45 342.38 C 613.24 359.55 631.26 384.24 641.16 411.80 C 662.17 461.79 642.82 524.72 598.42 555.43 C 579.37 568.78 556.75 576.12 533.95 579.80 C 480.95 587.27 426.36 578.10 377.07 557.93 C 371.66 555.91 366.83 552.21 361.07 551.28 C 356.90 551.14 355.33 555.59 355.00 559.01 C 344.36 629.75 333.95 700.60 328.29 771.94 C 327.44 784.17 326.71 796.45 327.08 808.71 C 315.42 805.45 303.65 801.79 293.10 795.76 C 292.75 789.32 294.03 782.96 294.65 776.57 C 303.68 707.16 316.48 638.18 333.20 570.20 C 336.52 557.52 339.59 544.71 344.16 532.42 C 383.88 549.75 426.84 558.88 469.96 562.03 C 502.44 564.07 536.85 564.65 566.70 549.70 C 606.72 530.25 632.85 486.08 631.55 441.74 C 629.83 406.53 612.37 374.21 591.15 346.90 C 590.17 345.57 589.85 343.93 589.45 342.38 Z" />
</g>
</svg>
